<svg xmlns="http://www.w3.org/2000/svg" xmlns:xlink="http://www.w3.org/1999/xlink" width="1920" zoomAndPan="magnify" viewBox="0 0 1440 809.999993" height="1080" preserveAspectRatio="xMidYMid meet" version="1.0"><defs><clipPath id="id1"><path d="M 352 144.609375 L 1357 144.609375 L 1357 665.109375 L 352 665.109375 Z M 352 144.609375 " clip-rule="nonzero"/></clipPath><clipPath id="id2"><path d="M 352 293 L 1200 293 L 1200 665.109375 L 352 665.109375 Z M 352 293 " clip-rule="nonzero"/></clipPath><clipPath id="id3"><path d="M 496 144.609375 L 1357 144.609375 L 1357 508 L 496 508 Z M 496 144.609375 " clip-rule="nonzero"/></clipPath></defs><path fill="#ffffff" d="M 966.625 158.722656 L 1342.734375 158.722656 L 1185.65625 651.148438 L 366.628906 651.148438 L 510.546875 158.722656 L 909.035156 158.722656 " fill-opacity="1" fill-rule="nonzero"/><g clip-path="url(#id1)"><path fill="#202020" d="M 966.625 172.738281 L 1323.550781 172.738281 L 1175.40625 637.136719 L 385.328125 637.136719 L 521.046875 172.738281 L 909.035156 172.738281 C 916.78125 172.738281 923.058594 166.449219 923.058594 158.722656 C 923.058594 150.980469 916.78125 144.710938 909.035156 144.710938 L 510.546875 144.710938 C 504.320312 144.710938 498.828125 148.808594 497.089844 154.78125 L 353.171875 647.226562 C 351.933594 651.449219 352.78125 656.046875 355.410156 659.566406 C 358.054688 663.082031 362.230469 665.164062 366.628906 665.164062 L 1185.65625 665.164062 C 1191.742188 665.164062 1197.15625 661.222656 1199.003906 655.421875 L 1356.097656 162.976562 C 1357.445312 158.738281 1356.675781 154.046875 1354.046875 150.449219 C 1351.433594 146.851562 1347.179688 144.710938 1342.734375 144.710938 L 966.625 144.710938 C 958.878906 144.710938 952.601562 150.980469 952.601562 158.722656 C 952.601562 166.449219 958.878906 172.738281 966.625 172.738281 " fill-opacity="1" fill-rule="nonzero"/></g><path fill="#ffffff" d="M 842.828125 307.945312 L 366.628906 651.148438 L 1185.65625 651.148438 Z M 842.828125 307.945312 " fill-opacity="1" fill-rule="nonzero"/><g clip-path="url(#id2)"><path fill="#202020" d="M 842.828125 307.945312 L 834.628906 296.574219 L 358.429688 639.796875 C 353.484375 643.363281 351.417969 649.664062 353.296875 655.46875 C 355.160156 661.269531 360.542969 665.164062 366.628906 665.164062 L 1185.65625 665.164062 C 1191.320312 665.164062 1196.4375 661.753906 1198.597656 656.53125 C 1200.769531 651.292969 1199.582031 645.269531 1195.574219 641.25 L 852.75 298.046875 C 847.882812 293.164062 840.230469 292.539062 834.628906 296.574219 L 842.828125 307.945312 L 832.90625 317.847656 L 1151.839844 637.136719 L 410.054688 637.136719 L 851.027344 319.316406 L 842.828125 307.945312 L 832.90625 317.847656 L 842.828125 307.945312 " fill-opacity="1" fill-rule="nonzero"/></g><path fill="#ffffff" d="M 964.636719 158.722656 L 1342.734375 158.722656 L 842.828125 493.609375 L 510.546875 158.722656 L 964.636719 158.722656 " fill-opacity="1" fill-rule="nonzero"/><g clip-path="url(#id3)"><path fill="#202020" d="M 964.636719 158.722656 L 964.636719 172.738281 L 1296.632812 172.738281 L 844.628906 475.527344 L 544.191406 172.738281 L 964.636719 172.738281 L 964.636719 144.710938 L 510.546875 144.710938 C 504.867188 144.710938 499.78125 148.089844 497.589844 153.328125 C 495.417969 158.550781 496.589844 164.558594 500.582031 168.578125 L 832.875 503.476562 C 837.617188 508.261719 845.050781 509 850.636719 505.261719 L 1350.542969 170.359375 C 1355.675781 166.917969 1357.945312 160.554688 1356.144531 154.640625 C 1354.34375 148.730469 1348.914062 144.710938 1342.734375 144.710938 L 964.636719 144.710938 L 964.636719 158.722656 " fill-opacity="1" fill-rule="nonzero"/></g><path fill="#202020" d="M 563.816406 297.371094 L 134.171875 297.371094 L 134.171875 249.84375 L 563.816406 249.84375 L 563.816406 297.371094 " fill-opacity="1" fill-rule="nonzero"/><path fill="#ffffff" d="M 563.816406 297.371094 L 563.816406 289.820312 L 141.730469 289.820312 L 141.730469 257.398438 L 556.242188 257.398438 L 556.242188 297.371094 L 563.816406 297.371094 L 563.816406 289.820312 L 563.816406 297.371094 L 571.375 297.371094 L 571.375 249.84375 C 571.375 247.855469 570.558594 245.902344 569.152344 244.507812 C 567.742188 243.101562 565.804688 242.289062 563.816406 242.289062 L 134.171875 242.289062 C 132.183594 242.289062 130.242188 243.101562 128.835938 244.507812 C 127.425781 245.902344 126.613281 247.855469 126.613281 249.84375 L 126.613281 297.371094 C 126.613281 299.359375 127.425781 301.296875 128.835938 302.722656 C 130.242188 304.113281 132.183594 304.925781 134.171875 304.925781 L 563.816406 304.925781 C 565.804688 304.925781 567.742188 304.113281 569.152344 302.722656 C 570.558594 301.296875 571.375 299.359375 571.375 297.371094 L 563.816406 297.371094 " fill-opacity="1" fill-rule="nonzero"/><path fill="#202020" d="M 651.382812 404.945312 L 221.738281 404.945312 L 221.738281 357.414062 L 651.382812 357.414062 L 651.382812 404.945312 " fill-opacity="1" fill-rule="nonzero"/><path fill="#ffffff" d="M 651.382812 404.945312 L 651.382812 397.375 L 229.296875 397.375 L 229.296875 364.96875 L 643.8125 364.96875 L 643.8125 404.945312 L 651.382812 404.945312 L 651.382812 397.375 L 651.382812 404.945312 L 658.941406 404.945312 L 658.941406 357.414062 C 658.941406 355.429688 658.128906 353.472656 656.722656 352.066406 C 655.3125 350.660156 653.371094 349.859375 651.382812 349.859375 L 221.738281 349.859375 C 219.753906 349.859375 217.8125 350.660156 216.402344 352.066406 C 214.996094 353.472656 214.183594 355.429688 214.183594 357.414062 L 214.183594 404.945312 C 214.183594 406.929688 214.996094 408.871094 216.402344 410.277344 C 217.8125 411.6875 219.753906 412.5 221.738281 412.5 L 651.382812 412.5 C 653.371094 412.5 655.3125 411.6875 656.722656 410.277344 C 658.128906 408.871094 658.941406 406.929688 658.941406 404.945312 L 651.382812 404.945312 " fill-opacity="1" fill-rule="nonzero"/><path fill="#202020" d="M 519.28125 517.382812 L 89.652344 517.382812 L 89.652344 469.851562 L 519.28125 469.851562 L 519.28125 517.382812 " fill-opacity="1" fill-rule="nonzero"/><path fill="#ffffff" d="M 519.28125 517.382812 L 519.28125 509.8125 L 97.210938 509.8125 L 97.210938 477.40625 L 511.722656 477.40625 L 511.722656 517.382812 L 519.28125 517.382812 L 519.28125 509.8125 L 519.28125 517.382812 L 526.855469 517.382812 L 526.855469 469.851562 C 526.855469 467.863281 526.039062 465.910156 524.632812 464.503906 C 523.222656 463.09375 521.28125 462.296875 519.28125 462.296875 L 89.652344 462.296875 C 87.664062 462.296875 85.722656 463.09375 84.316406 464.503906 C 82.90625 465.910156 82.09375 467.863281 82.09375 469.851562 L 82.09375 517.382812 C 82.09375 519.367188 82.90625 521.308594 84.316406 522.714844 C 85.722656 524.121094 87.664062 524.933594 89.652344 524.933594 L 519.28125 524.933594 C 521.28125 524.933594 523.222656 524.121094 524.632812 522.714844 C 526.039062 521.308594 526.855469 519.367188 526.855469 517.382812 L 519.28125 517.382812 " fill-opacity="1" fill-rule="nonzero"/></svg>